<?xml version="1.0" encoding="UTF-8" standalone="no"?>
<svg
   xmlns:dc="http://purl.org/dc/elements/1.1/"
   xmlns:cc="http://creativecommons.org/ns#"
   xmlns:rdf="http://www.w3.org/1999/02/22-rdf-syntax-ns#"
   xmlns:svg="http://www.w3.org/2000/svg"
   xmlns="http://www.w3.org/2000/svg"
   id="svg2339"
   version="1.1"
   viewBox="0 0 21.166666 21.166666"
   height="80"
   width="80">
  <defs
     id="defs2333" />
  <metadata
     id="metadata2336">
    <rdf:RDF>
      <cc:Work
         rdf:about="">
        <dc:format>image/svg+xml</dc:format>
        <dc:type
           rdf:resource="http://purl.org/dc/dcmitype/StillImage" />
        <dc:title></dc:title>
      </cc:Work>
    </rdf:RDF>
  </metadata>
  <g
     transform="translate(0,-275.83333)"
     id="layer1">
    <g
       id="g2974"
       transform="matrix(0.35277777,0,0,-0.35277777,-464.33028,375.55003)">
      <g
         id="g1166"
         transform="translate(1360.7328,241.6008)">
        <path
           d="m 0,0 c 0,-2.568 -1.406,-3.961 -3.961,-3.961 h -22.142 c -2.451,0 -3.845,1.393 -3.845,3.922 V 10.98 21.921 c 0,2.634 1.354,4.001 3.975,4.001 H -3.961 C -1.406,25.922 0,24.555 0,22.013 Z m -14.981,38.683 c -15.276,0 -27.676,-12.413 -27.676,-27.703 0,-15.291 12.4,-27.69 27.676,-27.69 15.303,0 27.69,12.399 27.69,27.69 0,15.29 -12.387,27.703 -27.69,27.703"
           style="fill:#f3f4f5;fill-opacity:1;fill-rule:evenodd;stroke:none"
           id="path1168" />
      </g>
      <g
         id="g1170"
         transform="translate(1355.2494,254.9036)">
        <path
           d="m 0,0 c -0.465,0 -0.593,-0.104 -0.49,-0.62 0.296,-1.394 0.18,-2.89 -0.208,-4.297 -1.289,-4.502 -5.986,-7.315 -10.683,-6.412 -4.555,0.891 -7.755,5.367 -7.225,9.999 0.155,1.33 0.128,1.278 -1.239,1.368 -0.954,0.039 -1.238,-0.193 -1.238,-1.225 0.065,-3.638 0.051,-7.303 0.051,-10.891 0,-1.393 0.387,-1.793 1.755,-1.793 h 9.767 9.794 c 1.393,0 1.755,0.4 1.78,1.793 V -1.949 C 2.064,0.193 2.064,0.154 0,0"
           style="fill:#f3f4f5;fill-opacity:1;fill-rule:evenodd;stroke:none"
           id="path1172" />
      </g>
      <g
         id="g1174"
         transform="translate(1345.6757,246.8001)">
        <path
           d="m 0,0 c 3.174,-0.052 5.832,2.594 5.857,5.781 0.051,3.11 -2.632,5.807 -5.754,5.807 -3.124,0 -5.755,-2.594 -5.832,-5.73 C -5.807,2.724 -3.148,0.078 0,0"
           style="fill:#f3f4f5;fill-opacity:1;fill-rule:evenodd;stroke:none"
           id="path1176" />
      </g>
      <g
         id="g1178"
         transform="translate(1354.3458,264.1545)">
        <path
           d="m 0,0 c -2.889,0 -2.889,0 -2.889,-2.929 0,-2.941 0,-2.941 2.94,-2.941 2.917,0 2.917,0 2.917,2.903 C 2.968,0 2.968,0 0,0"
           style="fill:#f3f4f5;fill-opacity:1;fill-rule:evenodd;stroke:none"
           id="path1180" />
      </g>
    </g>
  </g>
</svg>
