<?xml version="1.0" encoding="UTF-8" standalone="no"?>
<svg
   xmlns:dc="http://purl.org/dc/elements/1.1/"
   xmlns:cc="http://creativecommons.org/ns#"
   xmlns:rdf="http://www.w3.org/1999/02/22-rdf-syntax-ns#"
   xmlns:svg="http://www.w3.org/2000/svg"
   xmlns="http://www.w3.org/2000/svg"
   id="svg2339"
   version="1.1"
   viewBox="0 0 21.166666 21.166666"
   height="80"
   width="80">
  <defs
     id="defs2333" />
  <metadata
     id="metadata2336">
    <rdf:RDF>
      <cc:Work
         rdf:about="">
        <dc:format>image/svg+xml</dc:format>
        <dc:type
           rdf:resource="http://purl.org/dc/dcmitype/StillImage" />
        <dc:title></dc:title>
      </cc:Work>
    </rdf:RDF>
  </metadata>
  <g
     transform="translate(0,-275.83333)"
     id="layer1">
    <g
       transform="matrix(0.35277777,0,0,-0.35277777,16.104832,291.03234)"
       id="g1206">
      <path
         id="path1208"
         style="fill:#ffffff;fill-opacity:1;fill-rule:nonzero;stroke:none"
         d="m 0,0 c 0,-0.256 -0.207,-0.463 -0.463,-0.463 h -5.336 c -0.255,0 -0.462,0.207 -0.462,0.463 v 9.613 c 0,2.53 -0.904,4.258 -3.172,4.258 -1.73,0 -2.757,-1.163 -3.211,-2.289 -0.165,-0.403 -0.207,-0.962 -0.207,-1.526 V 0 c 0,-0.255 -0.207,-0.462 -0.463,-0.462 h -5.335 c -0.256,0 -0.463,0.206 -0.462,0.462 0.012,2.561 0.066,14.981 0.011,17.901 -0.004,0.259 0.204,0.468 0.462,0.468 h 5.325 c 0.255,0 0.462,-0.207 0.462,-0.462 v -2.206 c 0.832,1.28 2.316,3.111 5.643,3.111 C -3.089,18.812 0,16.12 0,10.337 Z m -25.892,20.765 c -1.851,0 -3.351,1.501 -3.351,3.351 0,1.851 1.5,3.352 3.351,3.352 1.851,0 3.351,-1.501 3.351,-3.352 0,-1.85 -1.5,-3.351 -3.351,-3.351 M -22.575,0 c 0,-0.256 -0.207,-0.463 -0.463,-0.463 h -5.334 c -0.255,0 -0.462,0.207 -0.462,0.463 v 17.907 c 0,0.255 0.207,0.462 0.462,0.462 h 5.334 c 0.256,0 0.463,-0.207 0.463,-0.462 z m 6.924,40.129 c -15.266,0 -27.685,-12.419 -27.685,-27.685 0,-15.264 12.419,-27.683 27.685,-27.683 15.265,0 27.684,12.419 27.684,27.683 0,15.266 -12.419,27.685 -27.684,27.685" />
    </g>
  </g>
</svg>
