<?xml version="1.0" encoding="UTF-8" standalone="no"?>
<svg
   xmlns:dc="http://purl.org/dc/elements/1.1/"
   xmlns:cc="http://creativecommons.org/ns#"
   xmlns:rdf="http://www.w3.org/1999/02/22-rdf-syntax-ns#"
   xmlns:svg="http://www.w3.org/2000/svg"
   xmlns="http://www.w3.org/2000/svg"
   id="svg2339"
   version="1.1"
   viewBox="0 0 21.166666 21.166666"
   height="80"
   width="80">
  <defs
     id="defs2333" />
  <metadata
     id="metadata2336">
    <rdf:RDF>
      <cc:Work
         rdf:about="">
        <dc:format>image/svg+xml</dc:format>
        <dc:type
           rdf:resource="http://purl.org/dc/dcmitype/StillImage" />
        <dc:title></dc:title>
      </cc:Work>
    </rdf:RDF>
  </metadata>
  <g
     transform="translate(0,-275.83333)"
     id="layer1">
    <g
       id="g3044"
       transform="matrix(0.35277777,0,0,-0.35277777,-509.25763,375.81451)">
      <g
         id="g1182"
         transform="translate(1491.9437,240.5139)">
        <path
           d="m 0,0 c 0,-0.477 -0.386,-0.862 -0.864,-0.862 h -34.904 c -0.477,0 -0.863,0.385 -0.863,0.862 v 23.556 l 0.004,0.023 c 0.003,0.096 0.017,0.192 0.053,0.285 0.002,0.006 0.006,0.009 0.008,0.014 0.009,0.023 0.024,0.041 0.035,0.063 0.036,0.071 0.078,0.135 0.13,0.192 0.022,0.024 0.046,0.045 0.07,0.066 0.054,0.047 0.112,0.086 0.175,0.118 0.029,0.014 0.055,0.03 0.085,0.041 0.096,0.037 0.197,0.062 0.303,0.062 h 34.904 c 0.107,0 0.207,-0.025 0.303,-0.062 0.03,-0.011 0.057,-0.027 0.085,-0.042 0.064,-0.031 0.121,-0.07 0.175,-0.117 0.025,-0.021 0.049,-0.042 0.071,-0.066 0.052,-0.057 0.093,-0.121 0.128,-0.191 0.012,-0.022 0.027,-0.041 0.037,-0.064 0.002,-0.005 0.006,-0.008 0.008,-0.014 0.035,-0.093 0.049,-0.189 0.052,-0.285 L 0,23.556 Z m -18.316,39.461 c -15.289,0 -27.683,-12.394 -27.683,-27.683 0,-15.289 12.394,-27.683 27.683,-27.683 15.289,0 27.683,12.394 27.683,27.683 0,15.289 -12.394,27.683 -27.683,27.683"
           style="fill:#f3f4f5;fill-opacity:1;fill-rule:nonzero;stroke:none"
           id="path1184" />
      </g>
      <g
         id="g1186"
         transform="translate(1490.2174,242.6038)">
        <path
           d="M 0,0 V 19.537 L -10.931,9.769 Z"
           style="fill:#f3f4f5;fill-opacity:1;fill-rule:nonzero;stroke:none"
           id="path1188" />
      </g>
      <g
         id="g1190"
         transform="translate(1457.0387,262.1409)">
        <path
           d="m 0,0 v -19.537 l 10.931,9.768 z"
           style="fill:#f3f4f5;fill-opacity:1;fill-rule:nonzero;stroke:none"
           id="path1192" />
      </g>
      <g
         id="g1194"
         transform="translate(1475.6925,251.4749)">
        <path
           d="M 0,0 13.127,11.732 H -17.256 L -4.129,0 C -2.952,-1.052 -1.177,-1.052 0,0"
           style="fill:#f3f4f5;fill-opacity:1;fill-rule:nonzero;stroke:none"
           id="path1196" />
      </g>
      <g
         id="g1198"
         transform="translate(1476.8422,250.1878)">
        <path
           d="m 0,0 c -0.917,-0.819 -2.065,-1.229 -3.215,-1.229 -1.15,0 -2.297,0.41 -3.213,1.229 L -7.577,1.026 -18.406,-8.649 H 11.978 L 1.149,1.026 Z"
           style="fill:#f3f4f5;fill-opacity:1;fill-rule:nonzero;stroke:none"
           id="path1200" />
      </g>
    </g>
  </g>
</svg>
