<svg id="Layer_1" data-name="Layer 1" xmlns="http://www.w3.org/2000/svg" viewBox="0 0 841.89 595.28"><defs><style>.cls-1{fill:#fff;}</style></defs><title>SCALE_MVMT_LOGO_WHITE</title><path class="cls-1" d="M560.45,297.69H520.89a1.07,1.07,0,0,1-1.07-1.07v-76a2.45,2.45,0,0,0-2.45-2.45h-7a2.46,2.46,0,0,0-2.45,2.45v86.51a2.45,2.45,0,0,0,2.45,2.45h50.07a2.46,2.46,0,0,0,2.45-2.45v-7A2.45,2.45,0,0,0,560.45,297.69Z"/><path class="cls-1" d="M641.69,297.8H594a1.07,1.07,0,0,1-1.07-1.07v-30a1.07,1.07,0,0,1,1.07-1.07h31.11a2.45,2.45,0,0,0,2.45-2.45v-5.44a2.45,2.45,0,0,0-2.45-2.45H594a1.07,1.07,0,0,1-1.07-1.07V231.29a1.07,1.07,0,0,1,1.07-1.07h42.34a2.46,2.46,0,0,0,2.45-2.45v-7a2.46,2.46,0,0,0-2.45-2.45H583.51a2.45,2.45,0,0,0-2.45,2.45v86.47a2.45,2.45,0,0,0,2.45,2.45h58.17a2.46,2.46,0,0,0,2.45-2.45v-7A2.45,2.45,0,0,0,641.69,297.8Z"/><path class="cls-1" d="M379.37,285.86a3,3,0,0,0-2.57-1.49h-7.69a2.94,2.94,0,0,0-2.37,1.22,35.79,35.79,0,0,1-55.18,3.52,35.54,35.54,0,0,1-9.62-26.86,36,36,0,0,1,32.53-33.34A35.53,35.53,0,0,1,361.73,238a2.94,2.94,0,0,0,4.06-.09l4.56-4.56a3,3,0,0,0,.87-2.16,3,3,0,0,0-.95-2.1,47.89,47.89,0,0,0-34.52-12.67,48.6,48.6,0,0,0-46.14,45.06,47.78,47.78,0,0,0,13,36.06,48.13,48.13,0,0,0,76.78-8.79A2.89,2.89,0,0,0,379.37,285.86Z"/><path class="cls-1" d="M238.73,253.82c-18.11-5-21.17-8.28-21.17-13.71,0-7.31,8.94-13.48,19.52-13.48,7.19,0,13.63,2.85,17,7a4.08,4.08,0,0,0,6,.37l3.19-3.12a3.3,3.3,0,0,0,.33-4.42c-5.63-7-15.41-11.62-26.54-11.62-17.42,0-31.59,11.35-31.59,25.3,0,16.78,17.31,21.58,29.94,25.08,19,5.26,27.08,10.7,27.08,18.19,0,9.91-11.41,18-25.43,18-12.89,0-23.57-6.81-25.22-15.6a3,3,0,0,0-2.94-2.37h-5.84c-2.3,0-3.52,1.28-3.34,2.83,1.8,15.11,17.85,27,37.33,27,20.68,0,37.5-13.36,37.5-29.79C274.58,263.76,250.36,257,238.73,253.82Z"/><path class="cls-1" d="M340.51,380.33a0.92,0.92,0,0,1-.71.26h-3.69a1,1,0,0,1-.68-0.22,1.11,1.11,0,0,1-.29-0.72l-2.07-22.3-12.58,22.85a3.31,3.31,0,0,1-.49.67,0.75,0.75,0,0,1-.54.17h0a0.85,0.85,0,0,1-.56-0.17,2.39,2.39,0,0,1-.49-0.67l-12.58-22.82-2.07,22.27a1.12,1.12,0,0,1-.29.72,1,1,0,0,1-.68.22h-3.66a1,1,0,0,1-.72-0.26,0.92,0.92,0,0,1-.2-0.76l3.51-36.62a0.76,0.76,0,0,1,.82-0.8h0.1a0.69,0.69,0,0,1,.5.15,3.14,3.14,0,0,1,.4.57l15.92,28.73,15.92-28.73a3.14,3.14,0,0,1,.4-0.57,0.69,0.69,0,0,1,.5-0.15h0.1a0.76,0.76,0,0,1,.82.8l3.51,36.62A1,1,0,0,1,340.51,380.33Z"/><path class="cls-1" d="M415.13,343.35a1.1,1.1,0,0,1-.1.45l-16.19,36.32a1.33,1.33,0,0,1-1.2,1h-0.1a1.1,1.1,0,0,1-.7-0.26,1.88,1.88,0,0,1-.52-0.71l-16.17-36.32a1.15,1.15,0,0,1-.1-0.47,0.58,0.58,0,0,1,.21-0.47,0.93,0.93,0,0,1,.61-0.17h4a1,1,0,0,1,.65.22,1.72,1.72,0,0,1,.45.57l11.61,27,11.59-27a1.67,1.67,0,0,1,.45-0.6,0.92,0.92,0,0,1,.6-0.22h4.09A0.66,0.66,0,0,1,415.13,343.35Z"/><path class="cls-1" d="M496.8,380.33a0.92,0.92,0,0,1-.71.26H492.4a1,1,0,0,1-.68-0.22,1.11,1.11,0,0,1-.29-0.72l-2.07-22.3-12.58,22.85a3.31,3.31,0,0,1-.49.67,0.75,0.75,0,0,1-.54.17h0a0.85,0.85,0,0,1-.56-0.17,2.39,2.39,0,0,1-.49-0.67L462.1,357.37,460,379.65a1.12,1.12,0,0,1-.29.72,1,1,0,0,1-.68.22H455.4a1,1,0,0,1-.72-0.26,0.92,0.92,0,0,1-.2-0.76L458,342.95a0.76,0.76,0,0,1,.82-0.8h0.1a0.69,0.69,0,0,1,.5.15,3.14,3.14,0,0,1,.4.57l15.92,28.73,15.92-28.73a3.14,3.14,0,0,1,.4-0.57,0.69,0.69,0,0,1,.5-0.15h0.1a0.76,0.76,0,0,1,.82.8L497,379.57A1,1,0,0,1,496.8,380.33Z"/><path class="cls-1" d="M535.41,343.62a0.9,0.9,0,0,1,.25-0.69,0.94,0.94,0,0,1,.67-0.24H562a0.87,0.87,0,0,1,.66.25,0.94,0.94,0,0,1,.24.67v3a1,1,0,0,1-.24.71,0.85,0.85,0,0,1-.66.26H551.91v32.09a1,1,0,0,1-.24.7,0.9,0.9,0,0,1-.68.25h-3.64a0.87,0.87,0,0,1-.95-0.95V347.56H536.34a0.91,0.91,0,0,1-.67-0.25,0.94,0.94,0,0,1-.25-0.7v-3Z"/><path class="cls-1" d="M490.13,308.91l-40-92.65a2.42,2.42,0,0,0-2.23-1.45h0a2.42,2.42,0,0,0-2.23,1.45L434.3,242.54h-6.76l8.69-20.1a0.75,0.75,0,0,0,0-.59l-2.41-5.58a2.42,2.42,0,0,0-2.23-1.45h0a2.42,2.42,0,0,0-2.23,1.45l-40,92.65a0.75,0.75,0,0,0,.69,1h7.84a0.75,0.75,0,0,0,.69-0.45l25.53-59.07h6.76l-25.27,58.48a0.75,0.75,0,0,0,.69,1h7.95a0.75,0.75,0,0,0,.69-0.45l32.26-74.72a0.75,0.75,0,0,1,1.38,0L467,277.55H460.3l-11.68-27a0.73,0.73,0,0,0-1.34,0l-4,9.22a0.73,0.73,0,0,0,0,.58l21.23,49.18a0.75,0.75,0,0,0,.69.45h7.95a0.75,0.75,0,0,0,.69-1l-10.14-23.47h6.74l10.39,24.06a0.75,0.75,0,0,0,.69.45h7.91A0.75,0.75,0,0,0,490.13,308.91Z"/></svg>