<?xml version="1.0" encoding="utf-8"?>
<!-- Generator: Adobe Illustrator 24.0.1, SVG Export Plug-In . SVG Version: 6.00 Build 0)  -->
<svg version="1.1" id="Layer_1" xmlns="http://www.w3.org/2000/svg" xmlns:xlink="http://www.w3.org/1999/xlink" x="0px" y="0px"
	 viewBox="0 0 458 195" style="enable-background:new 0 0 458 195;" xml:space="preserve">
<style type="text/css">
	.st0{fill:#552C73;}
</style>
<title>SCALE_MVMT_LOGO_PURPLE</title>
<path class="st0" d="M366.5,102.7h-39.6c-0.6,0-1.1-0.5-1.1-1.1l0,0v-76c0-1.4-1.1-2.4-2.5-2.4l0,0h-7c-1.4,0-2.4,1.1-2.5,2.4v86.5
	c0,1.4,1.1,2.5,2.4,2.5h0h50.1c1.4,0,2.4-1.1,2.5-2.5v-7C368.9,103.8,367.8,102.7,366.5,102.7z"/>
<path class="st0" d="M447.7,102.8H400c-0.6,0-1.1-0.5-1.1-1.1l0,0v-30c0-0.6,0.5-1.1,1.1-1.1l0,0h31.1c1.4,0,2.5-1.1,2.5-2.4v0v-5.4
	c0-1.4-1.1-2.4-2.5-2.4l0,0H400c-0.6,0-1.1-0.5-1.1-1.1v0v-23c0-0.6,0.5-1.1,1.1-1.1l0,0h42.3c1.4,0,2.4-1.1,2.5-2.4v-7
	c0-1.4-1.1-2.4-2.5-2.4h-52.8c-1.4,0-2.5,1.1-2.5,2.4c0,0,0,0,0,0v86.5c0,1.4,1.1,2.5,2.5,2.5l0,0h58.2c1.4,0,2.4-1.1,2.5-2.5v-7
	C450.1,103.9,449,102.8,447.7,102.8z"/>
<path class="st0" d="M185.4,90.9c-0.5-0.9-1.5-1.5-2.6-1.5h-7.7c-0.9,0-1.8,0.5-2.4,1.2c-11.6,16-33.9,19.7-50,8.1
	c-1.9-1.4-3.6-2.9-5.2-4.6c-6.8-7.2-10.3-17-9.6-26.9c1.2-17.6,15-31.7,32.5-33.3c10-0.9,19.9,2.4,27.3,9.1c1.2,1.1,2.9,1,4.1-0.1
	l4.6-4.6c0.6-0.6,0.9-1.4,0.9-2.2c0-0.8-0.4-1.6-1-2.1c-9.4-8.6-21.8-13.2-34.5-12.7c-24.6,1.2-44.4,20.5-46.1,45.1
	c-0.9,13.3,3.8,26.4,13,36.1c18.2,19.4,48.6,20.4,68,2.2c3.4-3.2,6.4-6.9,8.8-11C185.9,92.9,185.9,91.8,185.4,90.9z"/>
<path class="st0" d="M44.7,58.8c-18.1-5-21.2-8.3-21.2-13.7c0-7.3,8.9-13.5,19.5-13.5c7.2,0,13.6,2.9,17,7c1.4,1.8,4,2,5.7,0.6
	c0.1-0.1,0.2-0.2,0.3-0.2l3.2-3.1c1.2-1.2,1.4-3.1,0.3-4.4c-5.6-7-15.4-11.6-26.5-11.6c-17.4,0-31.6,11.4-31.6,25.3
	c0,16.8,17.3,21.6,29.9,25.1c19,5.3,27.1,10.7,27.1,18.2c0,9.9-11.4,18-25.4,18c-12.9,0-23.6-6.8-25.2-15.6
	c-0.3-1.4-1.5-2.4-2.9-2.4H9.1c-2.3,0-3.5,1.3-3.3,2.8c1.8,15.1,17.9,27,37.3,27c20.7,0,37.5-13.4,37.5-29.8
	C80.6,68.8,56.4,62,44.7,58.8z"/>
<path class="st0" d="M146.5,185.3c-0.2,0.2-0.4,0.3-0.7,0.3h-3.7c-0.2,0-0.5-0.1-0.7-0.2c-0.2-0.2-0.3-0.5-0.3-0.7l-2.1-22.3
	l-12.6,22.9c-0.1,0.2-0.3,0.5-0.5,0.7c-0.2,0.1-0.3,0.2-0.5,0.2l0,0c-0.2,0-0.4,0-0.6-0.2c-0.2-0.2-0.4-0.4-0.5-0.7l-12.6-22.8
	l-2.1,22.3c0,0.3-0.1,0.5-0.3,0.7c-0.2,0.2-0.4,0.2-0.7,0.2h-3.7c-0.3,0-0.5-0.1-0.7-0.3c-0.2-0.2-0.3-0.5-0.2-0.8l3.5-36.6
	c0-0.4,0.3-0.8,0.7-0.8c0,0,0.1,0,0.1,0h0.1c0.2,0,0.4,0,0.5,0.1c0.2,0.2,0.3,0.4,0.4,0.6l15.9,28.7l15.9-28.7
	c0.1-0.2,0.2-0.4,0.4-0.6c0.1-0.1,0.3-0.2,0.5-0.1h0.1c0.4,0,0.8,0.3,0.8,0.7c0,0,0,0.1,0,0.1l3.5,36.6
	C146.7,184.8,146.7,185.1,146.5,185.3z"/>
<path class="st0" d="M221.1,148.4c0,0.2,0,0.3-0.1,0.5l-16.2,36.3c-0.1,0.6-0.6,1-1.2,1h-0.1c-0.3,0-0.5-0.1-0.7-0.3
	c-0.2-0.2-0.4-0.4-0.5-0.7l-16.2-36.3c-0.1-0.1-0.1-0.3-0.1-0.5c0-0.2,0.1-0.4,0.2-0.5c0.2-0.1,0.4-0.2,0.6-0.2h4
	c0.2,0,0.5,0.1,0.6,0.2c0.2,0.2,0.3,0.4,0.5,0.6l11.6,27l11.6-27c0.1-0.2,0.3-0.4,0.5-0.6c0.2-0.1,0.4-0.2,0.6-0.2h4.1
	c0.4-0.1,0.7,0.1,0.8,0.5C221.1,148.2,221.1,148.3,221.1,148.4z"/>
<path class="st0" d="M302.8,185.3c-0.2,0.2-0.4,0.3-0.7,0.3h-3.7c-0.2,0-0.5-0.1-0.7-0.2c-0.2-0.2-0.3-0.5-0.3-0.7l-2.1-22.3
	l-12.6,22.9c-0.1,0.2-0.3,0.5-0.5,0.7c-0.2,0.1-0.3,0.2-0.5,0.2l0,0c-0.2,0-0.4,0-0.6-0.2c-0.2-0.2-0.4-0.4-0.5-0.7l-12.6-22.8
	l-2.1,22.3c0,0.3-0.1,0.5-0.3,0.7c-0.2,0.2-0.4,0.2-0.7,0.2h-3.6c-0.3,0-0.5-0.1-0.7-0.3c-0.2-0.2-0.3-0.5-0.2-0.8L264,148
	c0-0.4,0.3-0.8,0.7-0.8c0,0,0.1,0,0.1,0h0.1c0.2,0,0.4,0,0.5,0.1c0.2,0.2,0.3,0.4,0.4,0.6l15.9,28.7l15.9-28.7
	c0.1-0.2,0.2-0.4,0.4-0.6c0.1-0.1,0.3-0.2,0.5-0.1h0.1c0.4,0,0.8,0.3,0.8,0.7c0,0,0,0.1,0,0.1l3.5,36.6
	C303,184.8,303,185.1,302.8,185.3z"/>
<path class="st0" d="M341.4,148.6c0-0.3,0.1-0.5,0.3-0.7c0.2-0.2,0.4-0.3,0.7-0.2H368c0.2,0,0.5,0.1,0.7,0.3
	c0.2,0.2,0.3,0.4,0.2,0.7v3c0,0.3-0.1,0.5-0.2,0.7c-0.2,0.2-0.4,0.3-0.7,0.3h-10.1v32.1c0,0.3-0.1,0.5-0.2,0.7
	c-0.2,0.2-0.4,0.3-0.7,0.3h-3.6c-0.5,0-0.9-0.3-1-0.8c0-0.1,0-0.1,0-0.2v-32.1h-10.1c-0.2,0-0.5-0.1-0.7-0.3
	c-0.2-0.2-0.3-0.4-0.3-0.7L341.4,148.6L341.4,148.6z"/>
<path class="st0" d="M296.1,113.9l-40-92.6c-0.4-0.9-1.3-1.5-2.2-1.4l0,0c-1,0-1.8,0.6-2.2,1.4l-11.4,26.3h-6.8l8.7-20.1
	c0.1-0.2,0.1-0.4,0-0.6l-2.4-5.6c-0.4-0.9-1.3-1.5-2.2-1.4l0,0c-1,0-1.8,0.6-2.2,1.4l-40,92.6c-0.1,0.4,0.1,0.8,0.5,1
	c0.1,0,0.2,0,0.2,0h7.8c0.3,0,0.6-0.2,0.7-0.5l25.5-59.1h6.8l-25.3,58.5c-0.1,0.4,0.1,0.8,0.5,1c0.1,0,0.2,0,0.2,0h8
	c0.3,0,0.6-0.2,0.7-0.5l32.3-74.7c0.2-0.4,0.6-0.6,1-0.4c0.2,0.1,0.3,0.2,0.4,0.4L273,82.5h-6.7l-11.7-27c-0.2-0.4-0.6-0.5-1-0.4
	c-0.2,0.1-0.3,0.2-0.4,0.4l-4,9.2c-0.1,0.2-0.1,0.4,0,0.6l21.2,49.2c0.1,0.3,0.4,0.5,0.7,0.5h8c0.4,0,0.7-0.4,0.7-0.8
	c0-0.1,0-0.2,0-0.2l-10.1-23.5h6.7l10.4,24.1c0.1,0.3,0.4,0.5,0.7,0.5h7.9c0.4,0,0.8-0.3,0.8-0.7C296.2,114.2,296.2,114,296.1,113.9
	z"/>
</svg>
