<svg id="Layer_1" data-name="Layer 1" xmlns="http://www.w3.org/2000/svg" viewBox="0 0 366.26 302.29"><defs><style>.cls-1{fill:#552c73;}.cls-2{fill:#f2f3f4;}</style></defs><title>SCAME_MVMT_LOGO_PURPLE_BOX_TOP</title><rect class="cls-1" width="366.26" height="302.29"/><path class="cls-2" d="M268.43,214.31L200.68,57.42A4.1,4.1,0,0,0,196.9,55h0a4.09,4.09,0,0,0-3.78,2.45l-19.23,44.49H162.45l14.71-34a1.27,1.27,0,0,0,0-1l-4.08-9.45A4.1,4.1,0,0,0,169.29,55h0a4.09,4.09,0,0,0-3.78,2.45L97.83,214.31A1.27,1.27,0,0,0,99,216.09h13.28a1.27,1.27,0,0,0,1.17-.77l43.23-100h11.44l-42.8,99a1.27,1.27,0,0,0,1.17,1.77h13.46a1.27,1.27,0,0,0,1.17-.77L195.74,88.78a1.27,1.27,0,0,1,2.33,0l31.27,72.42H217.92l-19.77-45.75a1.24,1.24,0,0,0-2.28,0l-6.74,15.61a1.24,1.24,0,0,0,0,1l36,83.28a1.27,1.27,0,0,0,1.17.77h13.46a1.27,1.27,0,0,0,1.17-1.77L223.7,174.57h11.41l17.59,40.75a1.27,1.27,0,0,0,1.17.77h13.4A1.27,1.27,0,0,0,268.43,214.31Z"/></svg>