<?xml version="1.0" encoding="UTF-8" standalone="no"?>
<svg
   xmlns:dc="http://purl.org/dc/elements/1.1/"
   xmlns:cc="http://creativecommons.org/ns#"
   xmlns:rdf="http://www.w3.org/1999/02/22-rdf-syntax-ns#"
   xmlns:svg="http://www.w3.org/2000/svg"
   xmlns="http://www.w3.org/2000/svg"
   id="svg2401"
   version="1.1"
   viewBox="0 0 92.604165 26.458334"
   height="100"
   width="350">
  <defs
     id="defs2395" />
  <metadata
     id="metadata2398">
    <rdf:RDF>
      <cc:Work
         rdf:about="">
        <dc:format>image/svg+xml</dc:format>
        <dc:type
           rdf:resource="http://purl.org/dc/dcmitype/StillImage" />
        <dc:title></dc:title>
      </cc:Work>
    </rdf:RDF>
  </metadata>
  <g
     transform="translate(0,-270.54165)"
     id="layer1">
    <g
       transform="translate(-35.390469,81.826282)"
       id="g3097">
      <g
         id="g939"
         transform="matrix(0.35277777,0,0,-0.35277777,122.81412,204.18246)">
        <path
           d="m 0,0 c -0.109,-0.338 -0.219,-0.677 -0.35,-1.008 -0.012,-0.035 -0.147,-0.394 -0.168,-0.391 -0.01,0.003 -0.022,0.006 -0.033,0.008 -0.173,0.037 -0.346,0.074 -0.519,0.111 -0.69,0.146 -1.379,0.295 -2.07,0.441 -0.61,0.13 -1.221,0.26 -1.833,0.39 -0.015,0.333 -0.015,0.665 -0.029,0.998 -0.016,0.339 0.032,0.676 0.028,1.013 C -3.893,1.317 -2.813,1.07 -1.731,0.825 -1.114,0.683 -0.495,0.542 0.123,0.401 0.08,0.269 0.039,0.135 0,0 m -4.728,4.063 c 0.149,0.723 0.263,1.45 0.436,2.166 0.086,0.36 0.194,0.711 0.309,1.062 0.025,0.082 0.274,0.891 0.3,0.885 0.502,-0.113 1.001,-0.227 1.504,-0.34 0.621,-0.14 1.244,-0.281 1.867,-0.421 L -4.785,3.634 c 0.018,0.144 0.038,0.287 0.057,0.429 m 1.866,5.999 c 0.335,0.574 0.667,1.142 1.147,1.608 0.373,0.36 0.949,0.74 1.444,0.373 0.424,-0.313 0.657,-0.891 0.82,-1.371 0.22,-0.636 0.346,-1.336 0.406,-2.005 -1.347,0.323 -2.699,0.619 -4.049,0.926 0.077,0.157 0.156,0.312 0.232,0.469 M -3.589,2.877 1.047,7.05 C 1.055,6.199 1.028,5.348 0.934,4.503 0.838,3.652 0.685,2.805 0.51,1.967 -0.62,2.219 -1.75,2.468 -2.879,2.72 -3.115,2.771 -3.353,2.824 -3.589,2.877 m 3.35,11.307 C -1.263,14.401 -2.133,13.792 -2.741,13.026 -3.443,12.144 -3.908,11.069 -4.286,10.017 -4.787,8.622 -5.141,7.167 -5.415,5.71 -5.697,4.213 -5.871,2.695 -5.921,1.172 -5.946,0.42 -5.945,-0.335 -5.902,-1.086 c 0.021,-0.372 0.056,-0.743 0.11,-1.112 0.025,-0.176 0.056,-0.351 0.091,-0.526 0.016,-0.088 0.035,-0.174 0.056,-0.26 0.019,-0.02 0.1,0.007 0.122,0.012 0.651,0.139 1.355,0.171 2.02,0.126 0.714,-0.048 1.375,-0.266 1.995,-0.621 0.151,-0.085 0.297,-0.176 0.441,-0.273 0.073,-0.051 0.145,-0.103 0.216,-0.156 0.066,-0.047 0.118,-0.112 0.189,-0.148 0.188,0.299 0.355,0.606 0.508,0.924 0.306,0.636 0.55,1.3 0.774,1.968 0.474,1.409 0.835,2.852 1.088,4.318 0.259,1.488 0.425,2.997 0.473,4.507 0.041,1.283 -0.002,2.596 -0.306,3.847 -0.273,1.135 -0.859,2.396 -2.114,2.664"
           style="fill:#1d1d1b;fill-opacity:1;fill-rule:nonzero;stroke:none"
           id="path941" />
      </g>
      <g
         id="g943"
         transform="matrix(0.35277777,0,0,-0.35277777,103.37554,206.02989)">
        <path
           d="m 0,0 h -9.135 c -0.393,0 -0.734,0.135 -1.019,0.406 -0.269,0.273 -0.411,0.583 -0.411,0.932 0,0.39 0.161,0.892 0.501,1.532 l 6.543,12.589 h -3.433 c -0.876,0 -1.484,-0.155 -1.806,-0.447 -0.322,-0.29 -0.5,-0.872 -0.518,-1.783 h -1.09 v 3.937 h 8.187 c 1.234,0 1.86,-0.505 1.86,-1.494 0,-0.291 -0.089,-0.64 -0.286,-1.008 L -7.365,1.687 H 0 Z"
           style="fill:#1d1d1b;fill-opacity:1;fill-rule:nonzero;stroke:none"
           id="path945" />
      </g>
      <g
         id="g947"
         transform="matrix(0.35277777,0,0,-0.35277777,105.56283,205.0105)">
        <path
           d="M 0,0 V 2.366 C -1.879,2.251 -2.826,1.552 -2.826,0.233 c 0,-1.046 0.357,-1.589 1.074,-1.589 0.768,0 1.34,0.463 1.752,1.356 M 2.627,-1.493 H 1.375 c -0.535,0 -0.982,-0.134 -1.322,-0.427 -0.68,-0.524 -1.019,-0.815 -1.055,-0.835 -0.43,-0.271 -0.93,-0.407 -1.484,-0.407 -0.894,0 -1.645,0.292 -2.252,0.874 -0.609,0.581 -0.912,1.279 -0.912,2.095 0,2.385 1.894,3.685 5.65,3.878 v 1.086 c 0,1.047 -0.073,1.804 -0.251,2.271 -0.161,0.465 -0.465,0.697 -0.876,0.697 -0.411,0 -0.698,-0.194 -0.822,-0.62 C -1.967,7.099 -2.039,6.653 -2.164,5.818 -2.29,4.986 -2.79,4.539 -3.702,4.539 l -1.447,1.494 c 0.035,0.91 0.411,1.647 1.125,2.192 0.734,0.562 1.699,0.833 2.915,0.833 1.359,0 2.324,-0.349 2.895,-1.009 C 2.341,7.371 2.627,6.228 2.627,4.636 Z"
           style="fill:#1d1d1b;fill-opacity:1;fill-rule:nonzero;stroke:none"
           id="path949" />
      </g>
      <g
         id="g951"
         transform="matrix(0.35277777,0,0,-0.35277777,107.86001,204.29218)">
        <path
           d="m 0,0 c 0,-2.365 0.644,-3.529 1.913,-3.529 1.233,0 1.842,1.493 1.842,4.462 0,2.849 -0.59,4.286 -1.789,4.286 C 1.162,5.219 0.501,4.423 0,2.813 Z m -2.574,4.869 h 0.34 c 0.16,-0.02 0.267,-0.02 0.322,-0.02 0.732,0 1.215,0.098 1.484,0.292 0.447,0.408 0.91,0.814 1.394,1.241 0.517,0.408 1.108,0.602 1.769,0.602 1.199,0 2.146,-0.525 2.843,-1.61 0.696,-1.086 1.056,-2.581 1.056,-4.5 0,-1.98 -0.376,-3.512 -1.11,-4.599 C 4.791,-4.791 3.755,-5.333 2.432,-5.333 1.431,-5.333 0.625,-4.926 0,-4.131 v -4.616 c 0,-0.407 -0.125,-0.738 -0.357,-1.01 -0.25,-0.271 -0.554,-0.406 -0.912,-0.406 -0.376,0 -0.68,0.135 -0.93,0.425 -0.25,0.272 -0.375,0.602 -0.375,0.991 z"
           style="fill:#1d1d1b;fill-opacity:1;fill-rule:nonzero;stroke:none"
           id="path953" />
      </g>
      <g
         id="g955"
         transform="matrix(0.35277777,0,0,-0.35277777,111.48664,204.29218)">
        <path
           d="m 0,0 c 0,-2.365 0.626,-3.529 1.912,-3.529 1.234,0 1.842,1.493 1.842,4.462 0,2.849 -0.608,4.286 -1.806,4.286 C 1.145,5.219 0.501,4.423 0,2.813 Z m -2.574,4.869 h 0.339 c 0.143,-0.02 0.251,-0.02 0.322,-0.02 0.732,0 1.216,0.098 1.484,0.292 0.446,0.408 0.912,0.814 1.376,1.241 0.537,0.408 1.127,0.602 1.786,0.602 1.182,0 2.13,-0.525 2.828,-1.61 0.697,-1.086 1.036,-2.581 1.036,-4.5 0,-1.98 -0.358,-3.512 -1.091,-4.599 C 4.756,-4.791 3.754,-5.333 2.432,-5.333 1.43,-5.333 0.626,-4.926 0,-4.131 v -4.616 c 0,-0.407 -0.125,-0.738 -0.376,-1.01 -0.232,-0.271 -0.536,-0.406 -0.91,-0.406 -0.359,0 -0.663,0.135 -0.913,0.425 -0.25,0.272 -0.375,0.602 -0.375,0.991 z"
           style="fill:#1d1d1b;fill-opacity:1;fill-rule:nonzero;stroke:none"
           id="path957" />
      </g>
      <g
         id="g959"
         transform="matrix(0.35277777,0,0,-0.35277777,116.31151,204.35385)">
        <path
           d="m 0,0 c 0,1.806 -0.054,3.009 -0.144,3.55 -0.231,1.532 -0.804,2.308 -1.679,2.308 -0.681,0 -1.162,-0.387 -1.448,-1.182 -0.287,-0.777 -0.43,-1.999 -0.43,-3.686 0,-1.628 0.143,-2.793 0.394,-3.511 0.286,-0.776 0.767,-1.164 1.465,-1.164 C -0.626,-3.685 0,-2.463 0,0 m 2.575,0.99 c 0,-3.996 -1.484,-6.013 -4.417,-6.013 -2.95,0 -4.433,2.017 -4.433,6.013 0,4.132 1.483,6.206 4.433,6.206 1.359,0 2.432,-0.543 3.237,-1.647 C 2.18,4.462 2.575,2.93 2.575,0.99"
           style="fill:#1d1d1b;fill-opacity:1;fill-rule:nonzero;stroke:none"
           id="path961" />
      </g>
      <g
         id="g963"
         transform="matrix(0.35277777,0,0,-0.35277777,119.42104,202.88227)">
        <path
           d="m 0,0 c 0,1.027 -0.556,1.532 -1.664,1.532 -0.947,0 -1.411,-0.387 -1.411,-1.202 0,-0.505 0.5,-1.067 1.501,-1.727 0.501,-0.311 1.091,-0.717 1.77,-1.182 0.911,-0.875 1.377,-1.922 1.377,-3.105 0,-1.027 -0.341,-1.88 -1.019,-2.522 -0.68,-0.639 -1.556,-0.949 -2.646,-0.949 -0.967,0 -1.752,0.173 -2.359,0.543 -0.609,0.368 -0.932,0.833 -0.932,1.357 0,0.33 0.234,0.485 0.698,0.485 0.125,0 0.25,0 0.339,-0.019 0.715,-0.525 1.378,-0.795 1.985,-0.795 1.019,0 1.538,0.406 1.538,1.222 0,0.447 -0.197,0.833 -0.59,1.202 -0.161,0.175 -0.679,0.543 -1.555,1.145 -0.876,0.6 -1.502,1.144 -1.86,1.628 -0.43,0.564 -0.643,1.224 -0.643,1.98 0,1.086 0.338,1.919 1.036,2.521 0.679,0.602 1.645,0.911 2.915,0.911 0.571,0 1.394,-0.154 2.449,-0.466 L 0.929,0 Z"
           style="fill:#1d1d1b;fill-opacity:1;fill-rule:nonzero;stroke:none"
           id="path965" />
      </g>
      <g
         id="g967"
         transform="matrix(0.35277777,0,0,-0.35277777,122.38384,206.84999)">
        <path
           d="m 0,0 c -0.203,-1.514 -1.562,-2.578 -3.035,-2.38 -1.473,0.197 -2.5,1.585 -2.296,3.095 0.203,1.513 1.56,2.577 3.032,2.379 C -0.825,2.896 0.203,1.511 0,0"
           style="fill:#1d1d1b;fill-opacity:1;fill-rule:nonzero;stroke:none"
           id="path969" />
      </g>
      <g
         id="g971"
         transform="matrix(0.35277777,0,0,-0.35277777,122.92472,207.06688)">
        <path
           d="m 0,0 h 0.096 c 0.11,0 0.2,0.037 0.2,0.127 0,0.079 -0.058,0.132 -0.185,0.132 C 0.058,0.259 0.021,0.254 0,0.248 Z m -0.006,-0.486 h -0.199 v 0.867 c 0.078,0.01 0.189,0.026 0.332,0.026 0.163,0 0.237,-0.026 0.296,-0.068 0.053,-0.038 0.089,-0.1 0.089,-0.185 0,-0.106 -0.079,-0.175 -0.18,-0.207 v -0.01 C 0.417,-0.091 0.459,-0.158 0.486,-0.275 0.512,-0.407 0.534,-0.454 0.549,-0.486 H 0.338 c -0.026,0.032 -0.042,0.105 -0.068,0.211 -0.016,0.09 -0.069,0.132 -0.179,0.132 h -0.097 z m 0.133,1.142 c -0.375,0 -0.666,-0.313 -0.666,-0.694 0,-0.385 0.291,-0.691 0.677,-0.691 0.374,-0.006 0.661,0.306 0.661,0.687 0,0.385 -0.287,0.698 -0.667,0.698 z m 0.011,0.175 c 0.491,0 0.883,-0.381 0.883,-0.869 0,-0.486 -0.392,-0.871 -0.889,-0.871 -0.497,0 -0.894,0.385 -0.894,0.871 0,0.488 0.397,0.869 0.894,0.869 z"
           style="fill:#1d1d1b;fill-opacity:1;fill-rule:nonzero;stroke:none"
           id="path973" />
      </g>
      <text
         y="196.09976"
         x="99.263245"
         style="font-variant:normal;font-weight:300;font-stretch:normal;font-size:3.20022345px;font-family:'URW DIN Light';-inkscape-font-specification:URWDIN-Light;writing-mode:lr-tb;fill:#1d1d1b;fill-opacity:1;fill-rule:nonzero;stroke:none;stroke-width:0.35277775"
         id="text977">
        <tspan
           style="stroke-width:0.35277775"
           x="99.263245 101.91623 104.74811 108.20467 110.69444 113.40183 115.8916 118.7078 119.98789 122.74648 47.666039 50.290222 52.997612 55.557793 58.057171 60.54694 63.564754 66.038521 68.528297 71.344498 72.62458 75.383499"
           y="196.09976"
           id="tspan975">POWERED BYPRESENTED BY</tspan>
      </text>
      <g
         id="g987"
         transform="matrix(0.35277777,0,0,-0.35277777,57.99396,207.99635)">
        <path
           d="m 0,0 v -0.688 c -0.073,0.104 -0.203,0.246 -0.392,0.426 -0.164,0.164 -0.351,0.303 -0.564,0.417 -0.091,0.05 -0.188,0.096 -0.291,0.14 C -1.581,0.431 -1.944,0.5 -2.339,0.5 -2.733,0.5 -3.096,0.432 -3.427,0.299 -3.757,0.165 -4.042,-0.018 -4.281,-0.25 c -0.24,-0.232 -0.427,-0.503 -0.56,-0.814 -0.134,-0.311 -0.2,-0.644 -0.2,-0.999 V -2.08 c 0,-0.355 0.068,-0.689 0.204,-1.003 0.137,-0.313 0.325,-0.586 0.565,-0.818 0.239,-0.232 0.526,-0.416 0.86,-0.553 0.333,-0.136 0.697,-0.205 1.092,-0.205 0.393,0 0.758,0.069 1.091,0.205 0.091,0.038 0.182,0.079 0.273,0.123 0.31,0.164 0.528,0.295 0.655,0.393 v 1.563 h -2.12 v 0.402 H 0.163 V -3.438 -4.069 -4.11 c -0.236,-0.224 -0.609,-0.445 -1.119,-0.663 -0.024,-0.011 -0.049,-0.019 -0.072,-0.024 -0.395,-0.164 -0.831,-0.246 -1.311,-0.246 -0.485,0 -0.924,0.081 -1.314,0.241 -0.392,0.161 -0.727,0.377 -1.006,0.647 -0.279,0.27 -0.494,0.583 -0.646,0.937 -0.152,0.355 -0.227,0.729 -0.227,1.122 v 0.016 c 0,0.393 0.077,0.768 0.231,1.126 0.155,0.357 0.372,0.673 0.652,0.946 0.278,0.273 0.615,0.489 1.009,0.651 0.394,0.161 0.834,0.241 1.32,0.241 0.478,0 0.916,-0.082 1.31,-0.245 0.018,-0.006 0.036,-0.012 0.054,-0.017 0.352,-0.153 0.655,-0.347 0.91,-0.581 C -0.027,0.024 -0.013,0.011 0,0"
           style="fill:#1d1d1b;fill-opacity:1;fill-rule:nonzero;stroke:none"
           id="path989" />
      </g>
      <g
         id="g991"
         transform="matrix(0.35277777,0,0,-0.35277777,59.136714,208.76755)">
        <path
           d="M 0,0 H 1.919 C 2.641,0.005 3.167,0.128 3.498,0.369 3.829,0.608 3.994,0.958 3.994,1.417 3.994,1.776 3.826,2.062 3.489,2.272 3.152,2.482 2.744,2.587 2.265,2.587 H 0 v -1.22 z m -0.465,-2.759 v 5.747 h 0.364 0.082 2.165 c 0.17,0 0.348,-0.013 0.533,-0.041 C 2.864,2.92 3.066,2.87 3.284,2.796 3.503,2.722 3.697,2.629 3.866,2.518 4.036,2.406 4.178,2.254 4.29,2.063 4.402,1.872 4.458,1.657 4.458,1.417 4.458,0.92 4.29,0.527 3.953,0.237 3.616,-0.052 3.175,-0.237 2.629,-0.319 l 2.093,-2.44 H 4.131 L 2.102,-0.401 H 2.065 2.034 0 v -2.358 z"
           style="fill:#1d1d1b;fill-opacity:1;fill-rule:nonzero;stroke:none"
           id="path993" />
      </g>
      <g
         id="g995"
         transform="matrix(0.35277777,0,0,-0.35277777,62.574569,209.63983)">
        <path
           d="m 0,0 c 0.394,0 0.757,0.067 1.087,0.201 0.331,0.133 0.616,0.316 0.855,0.548 0.24,0.232 0.426,0.504 0.56,0.815 0.134,0.311 0.2,0.644 0.2,0.999 V 2.579 C 2.702,2.934 2.634,3.268 2.497,3.582 2.361,3.896 2.173,4.168 1.934,4.401 1.693,4.633 1.407,4.817 1.073,4.954 0.74,5.09 0.376,5.158 -0.019,5.158 -0.413,5.158 -0.775,5.091 -1.105,4.958 -1.437,4.824 -1.722,4.641 -1.961,4.409 -2.201,4.177 -2.388,3.905 -2.521,3.594 -2.654,3.283 -2.721,2.95 -2.721,2.596 V 2.579 c 0,-0.355 0.069,-0.689 0.205,-1.003 C -2.38,1.262 -2.191,0.989 -1.952,0.758 -1.713,0.525 -1.426,0.341 -1.092,0.205 -0.759,0.068 -0.395,0 0,0 m -0.019,-0.384 c -0.485,0 -0.923,0.08 -1.314,0.241 -0.392,0.161 -0.727,0.376 -1.006,0.647 -0.279,0.27 -0.494,0.582 -0.645,0.937 -0.153,0.355 -0.228,0.729 -0.228,1.122 v 0.016 c 0,0.393 0.077,0.768 0.232,1.126 0.155,0.357 0.372,0.672 0.651,0.945 0.278,0.273 0.615,0.49 1.01,0.651 C -0.926,5.462 -0.485,5.543 0,5.543 0.479,5.543 0.916,5.462 1.311,5.301 1.704,5.14 2.041,4.925 2.32,4.655 2.599,4.384 2.814,4.072 2.966,3.717 3.117,3.362 3.193,2.989 3.193,2.596 3.199,2.59 3.199,2.584 3.193,2.579 3.193,2.186 3.116,1.811 2.962,1.454 2.807,1.096 2.59,0.781 2.311,0.508 2.032,0.235 1.693,0.018 1.296,-0.143 0.899,-0.304 0.461,-0.384 -0.019,-0.384"
           style="fill:#1d1d1b;fill-opacity:1;fill-rule:nonzero;stroke:none"
           id="path997" />
      </g>
      <g
         id="g999"
         transform="matrix(0.35277777,0,0,-0.35277777,66.368657,208.9293)">
        <path
           d="M 0,0 C 0,-0.082 -0.002,-0.16 -0.005,-0.233 -0.008,-0.307 -0.026,-0.43 -0.06,-0.602 -0.093,-0.774 -0.14,-0.931 -0.2,-1.072 -0.261,-1.214 -0.361,-1.373 -0.501,-1.547 -0.64,-1.722 -0.803,-1.868 -0.987,-1.985 -1.172,-2.103 -1.418,-2.201 -1.725,-2.28 c -0.306,-0.079 -0.65,-0.118 -1.032,-0.118 -0.309,0 -0.593,0.038 -0.851,0.114 -0.258,0.076 -0.467,0.172 -0.627,0.286 -0.161,0.115 -0.305,0.255 -0.433,0.422 -0.127,0.166 -0.222,0.318 -0.282,0.454 -0.061,0.137 -0.112,0.289 -0.154,0.455 -0.043,0.166 -0.069,0.285 -0.079,0.356 -0.008,0.071 -0.016,0.144 -0.022,0.221 v 0.025 3.512 h 0.446 v -3.512 c 0,-0.055 0.003,-0.117 0.009,-0.185 0.006,-0.068 0.024,-0.167 0.055,-0.298 0.03,-0.131 0.071,-0.257 0.123,-0.377 0.051,-0.12 0.129,-0.247 0.231,-0.381 0.104,-0.133 0.225,-0.249 0.364,-0.348 0.14,-0.098 0.319,-0.179 0.538,-0.241 0.217,-0.063 0.46,-0.094 0.727,-0.094 0.316,0 0.6,0.032 0.851,0.098 0.252,0.065 0.455,0.144 0.61,0.237 0.154,0.093 0.288,0.21 0.4,0.352 0.113,0.142 0.195,0.271 0.246,0.385 0.051,0.115 0.091,0.246 0.119,0.393 0.027,0.148 0.042,0.253 0.045,0.316 0.003,0.062 0.002,0.131 -0.005,0.208 V 0.033 3.447 H 0 V 0.033 Z"
           style="fill:#1d1d1b;fill-opacity:1;fill-rule:nonzero;stroke:none"
           id="path1001" />
      </g>
      <g
         id="g1003"
         transform="matrix(0.35277777,0,0,-0.35277777,67.456978,208.84834)">
        <path
           d="M 0,0 H 1.919 C 2.277,0.005 2.579,0.05 2.825,0.135 3.07,0.219 3.257,0.341 3.385,0.5 3.512,0.657 3.603,0.827 3.657,1.007 3.712,1.187 3.739,1.4 3.739,1.646 3.739,1.891 3.597,2.147 3.312,2.415 3.026,2.683 2.678,2.816 2.265,2.816 H 0 v -1.22 z m -0.465,-2.53 v 5.747 h 0.364 0.082 2.165 C 2.341,3.217 2.555,3.182 2.788,3.111 3.021,3.04 3.246,2.941 3.462,2.816 3.677,2.69 3.856,2.524 3.999,2.317 4.141,2.109 4.213,1.886 4.213,1.646 4.213,1.007 4.024,0.504 3.648,0.139 3.272,-0.227 2.732,-0.407 2.028,-0.401 H 0 V -2.53 Z"
           style="fill:#1d1d1b;fill-opacity:1;fill-rule:nonzero;stroke:none"
           id="path1005" />
      </g>
      <g
         id="g1007"
         transform="matrix(0.35277777,0,0,-0.35277777,38.659411,205.11765)">
        <path
           d="M 0,0 1.306,1.924 C 1.936,1.489 2.585,1.114 3.256,0.799 3.926,0.484 4.627,0.327 5.36,0.327 c 0.389,0 0.733,0.048 1.031,0.146 0.297,0.096 0.549,0.223 0.755,0.378 0.207,0.154 0.362,0.332 0.464,0.532 0.104,0.2 0.155,0.398 0.155,0.593 0,0.252 -0.078,0.466 -0.232,0.644 C 7.379,2.797 7.172,2.943 6.915,3.058 6.657,3.172 6.354,3.27 6.004,3.35 5.654,3.43 5.291,3.504 4.913,3.573 4.661,3.619 4.369,3.674 4.037,3.737 3.704,3.799 3.361,3.885 3.006,3.994 2.651,4.103 2.302,4.246 1.958,4.424 1.614,4.601 1.306,4.825 1.03,5.094 0.756,5.363 0.535,5.684 0.369,6.056 0.203,6.428 0.12,6.866 0.12,7.37 c 0,0.733 0.149,1.343 0.446,1.83 0.298,0.487 0.679,0.87 1.143,1.151 0.464,0.28 0.979,0.478 1.547,0.593 0.566,0.114 1.113,0.172 1.64,0.172 0.527,0 0.997,-0.035 1.409,-0.104 C 6.717,10.944 7.101,10.843 7.456,10.711 7.811,10.58 8.157,10.414 8.495,10.213 8.833,10.013 9.197,9.775 9.586,9.5 L 8.246,7.611 C 7.65,8.023 7.078,8.338 6.528,8.556 5.979,8.773 5.4,8.882 4.793,8.882 4.587,8.882 4.352,8.856 4.089,8.805 3.825,8.753 3.576,8.67 3.341,8.556 3.106,8.441 2.912,8.295 2.757,8.118 2.603,7.939 2.525,7.725 2.525,7.473 2.525,7.221 2.616,7.009 2.8,6.837 2.983,6.666 3.218,6.522 3.505,6.408 3.791,6.293 4.105,6.196 4.449,6.116 4.793,6.036 5.125,5.956 5.445,5.875 5.687,5.818 5.97,5.761 6.296,5.704 6.623,5.646 6.96,5.566 7.31,5.463 7.659,5.36 8.006,5.223 8.35,5.051 8.692,4.879 8.999,4.659 9.269,4.389 9.537,4.12 9.755,3.788 9.921,3.393 10.087,2.998 10.17,2.52 10.17,1.958 10.17,1.306 10.056,0.739 9.827,0.258 9.598,-0.224 9.271,-0.622 8.848,-0.937 8.424,-1.251 7.92,-1.489 7.336,-1.649 6.751,-1.81 6.104,-1.89 5.395,-1.89 4.741,-1.89 4.166,-1.841 3.668,-1.744 3.169,-1.647 2.714,-1.515 2.302,-1.349 1.89,-1.183 1.5,-0.985 1.134,-0.756 0.767,-0.527 0.389,-0.275 0,0"
           style="fill:#1d1d1b;fill-opacity:1;fill-rule:nonzero;stroke:none"
           id="path1009" />
      </g>
      <g
         id="g1011"
         transform="matrix(0.35277777,0,0,-0.35277777,46.738164,202.01447)">
        <path
           d="M 0,0 H -3.59 V -10.446 H -5.996 V 0 H -9.604 V 2.13 H 0 Z"
           style="fill:#1d1d1b;fill-opacity:1;fill-rule:nonzero;stroke:none"
           id="path1013" />
      </g>
      <g
         id="g1015"
         transform="matrix(0.35277777,0,0,-0.35277777,48.816942,204.26308)">
        <path
           d="M 0,0 H 3.591 L 1.805,3.797 Z M -4.741,-4.072 1.684,8.487 H 1.925 L 8.35,-4.072 H 5.738 L 4.759,-2.096 H -1.168 L -2.13,-4.072 Z"
           style="fill:#1d1d1b;fill-opacity:1;fill-rule:nonzero;stroke:none"
           id="path1017" />
      </g>
      <g
         id="g1019"
         transform="matrix(0.35277777,0,0,-0.35277777,57.114098,203.27519)">
        <path
           d="m 0,0 c -0.012,-0.241 -0.018,-0.464 -0.018,-0.67 -0.01,-0.184 -0.016,-0.364 -0.016,-0.541 0,-0.178 -0.006,-0.312 -0.018,-0.404 -0.068,-0.79 -0.283,-1.523 -0.643,-2.199 -0.362,-0.676 -0.826,-1.257 -1.392,-1.744 -0.567,-0.486 -1.22,-0.867 -1.959,-1.142 -0.738,-0.275 -1.515,-0.412 -2.328,-0.412 -0.893,0 -1.735,0.171 -2.525,0.515 -0.79,0.344 -1.482,0.81 -2.075,1.4 -0.593,0.59 -1.063,1.28 -1.409,2.07 -0.346,0.791 -0.519,1.632 -0.519,2.526 0,0.893 0.173,1.737 0.519,2.534 0.346,0.796 0.816,1.488 1.409,2.078 0.593,0.591 1.285,1.057 2.075,1.401 0.79,0.343 1.632,0.515 2.525,0.515 1.135,0 2.174,-0.263 3.118,-0.79 0.945,-0.527 1.71,-1.232 2.294,-2.114 L -3.023,1.77 c -0.368,0.538 -0.845,0.99 -1.435,1.356 -0.59,0.367 -1.229,0.551 -1.916,0.551 -0.572,0 -1.107,-0.118 -1.605,-0.352 -0.5,-0.236 -0.935,-0.548 -1.307,-0.937 -0.372,-0.389 -0.667,-0.845 -0.885,-1.366 -0.218,-0.521 -0.326,-1.062 -0.326,-1.623 0,-0.573 0.108,-1.117 0.326,-1.632 0.218,-0.516 0.513,-0.968 0.885,-1.357 0.372,-0.39 0.807,-0.702 1.307,-0.937 0.498,-0.235 1.033,-0.352 1.605,-0.352 0.436,0 0.853,0.066 1.254,0.197 0.401,0.132 0.767,0.318 1.099,0.559 0.333,0.24 0.623,0.526 0.869,0.859 0.246,0.332 0.426,0.699 0.541,1.099 H -7.25 V 0 Z"
           style="fill:#1d1d1b;fill-opacity:1;fill-rule:nonzero;stroke:none"
           id="path1021" />
      </g>
      <g
         id="g1023"
         transform="matrix(0.35277777,0,0,-0.35277777,59.641433,202.01447)">
        <path
           d="M 0,0 V -3.145 H 6.082 V -5.326 H 0 v -2.955 h 6.854 v -2.165 H -2.405 V 2.13 H 6.854 V 0 Z"
           style="fill:#1d1d1b;fill-opacity:1;fill-rule:nonzero;stroke:none"
           id="path1025" />
      </g>
      <g
         id="g1027"
         transform="matrix(0.35277777,0,0,-0.35277777,67.09591,204.94796)">
        <path
           d="m 0,0 v -2.13 h -9.054 v 12.575 h 2.406 V 0 Z"
           style="fill:#1d1d1b;fill-opacity:1;fill-rule:nonzero;stroke:none"
           id="path1029" />
      </g>
      <path
         d="m 69.568634,205.69966 h -0.848429 v -4.43054 h 0.848429 z"
         style="fill:#1d1d1b;fill-opacity:1;fill-rule:nonzero;stroke:none;stroke-width:0.35277775"
         id="path1031" />
      <g
         id="g1033"
         transform="matrix(0.35277777,0,0,-0.35277777,75.817529,203.27519)">
        <path
           d="m 0,0 c -0.012,-0.241 -0.018,-0.464 -0.018,-0.67 -0.011,-0.184 -0.016,-0.364 -0.016,-0.541 0,-0.178 -0.007,-0.312 -0.018,-0.404 -0.069,-0.79 -0.283,-1.523 -0.644,-2.199 -0.361,-0.676 -0.825,-1.257 -1.392,-1.744 -0.566,-0.486 -1.22,-0.867 -1.958,-1.142 -0.739,-0.275 -1.516,-0.412 -2.328,-0.412 -0.894,0 -1.735,0.171 -2.525,0.515 -0.79,0.344 -1.483,0.81 -2.076,1.4 -0.592,0.59 -1.062,1.28 -1.409,2.07 -0.345,0.791 -0.518,1.632 -0.518,2.526 0,0.893 0.173,1.737 0.518,2.534 0.347,0.796 0.817,1.488 1.409,2.078 0.593,0.591 1.286,1.057 2.076,1.401 0.79,0.343 1.631,0.515 2.525,0.515 1.134,0 2.173,-0.263 3.118,-0.79 0.945,-0.527 1.709,-1.232 2.293,-2.114 L -3.023,1.77 C -3.391,2.308 -3.869,2.76 -4.458,3.126 -5.049,3.493 -5.687,3.677 -6.374,3.677 -6.947,3.677 -7.482,3.559 -7.98,3.325 -8.479,3.089 -8.914,2.777 -9.286,2.388 -9.658,1.999 -9.953,1.543 -10.171,1.022 c -0.218,-0.521 -0.326,-1.062 -0.326,-1.623 0,-0.573 0.108,-1.117 0.326,-1.632 0.218,-0.516 0.513,-0.968 0.885,-1.357 0.372,-0.39 0.807,-0.702 1.306,-0.937 0.498,-0.235 1.033,-0.352 1.606,-0.352 0.436,0 0.853,0.066 1.254,0.197 0.4,0.132 0.767,0.318 1.099,0.559 0.333,0.24 0.622,0.526 0.869,0.859 0.246,0.332 0.425,0.699 0.541,1.099 H -7.25 V 0 Z"
           style="fill:#1d1d1b;fill-opacity:1;fill-rule:nonzero;stroke:none"
           id="path1035" />
      </g>
      <g
         id="g1037"
         transform="matrix(0.35277777,0,0,-0.35277777,81.260079,201.26309)">
        <path
           d="m 0,0 v -12.576 h -2.405 v 5 h -6.202 v -5 h -2.406 V 0 h 2.406 v -5.446 h 6.202 V 0 Z"
           style="fill:#1d1d1b;fill-opacity:1;fill-rule:nonzero;stroke:none"
           id="path1039" />
      </g>
      <g
         id="g1041"
         transform="matrix(0.35277777,0,0,-0.35277777,86.138676,202.01447)">
        <path
           d="M 0,0 H -3.591 V -10.446 H -5.996 V 0 H -9.604 V 2.13 H 0 Z"
           style="fill:#1d1d1b;fill-opacity:1;fill-rule:nonzero;stroke:none"
           id="path1043" />
      </g>
    </g>
  </g>
</svg>
