<?xml version="1.0" encoding="UTF-8" standalone="no"?>
<svg
   xmlns:dc="http://purl.org/dc/elements/1.1/"
   xmlns:cc="http://creativecommons.org/ns#"
   xmlns:rdf="http://www.w3.org/1999/02/22-rdf-syntax-ns#"
   xmlns:svg="http://www.w3.org/2000/svg"
   xmlns="http://www.w3.org/2000/svg"
   id="svg1650"
   version="1.1"
   viewBox="0 0 180 30"
   height="30mm"
   width="180mm">
  <defs
     id="defs1644">
    <clipPath
       id="clipPath1160"
       clipPathUnits="userSpaceOnUse">
      <path
         id="path1158"
         d="M 0,9279.438 H 2560 V 0 H 0 Z" />
    </clipPath>
  </defs>
  <metadata
     id="metadata1647">
    <rdf:RDF>
      <cc:Work
         rdf:about="">
        <dc:format>image/svg+xml</dc:format>
        <dc:type
           rdf:resource="http://purl.org/dc/dcmitype/StillImage" />
        <dc:title></dc:title>
      </cc:Work>
    </rdf:RDF>
  </metadata>
  <g
     transform="translate(0,-267)"
     id="layer1">
    <g
       id="g1154"
       transform="matrix(0.35277777,0,0,-0.35277777,-362.24028,371.69403)">
      <g
         clip-path="url(#clipPath1160)"
         id="g1156">
        <g
           transform="translate(1236.2311,262.8303)"
           id="g1162">
          <path
             id="path1164"
             style="fill:#f3f4f5;fill-opacity:1;fill-rule:evenodd;stroke:none"
             d="m 0,0 c -0.852,-1.162 -1.846,-2.207 -3.019,-3.084 -0.22,-0.181 -0.271,-0.311 -0.271,-0.595 0.09,-5.328 -1.613,-10.076 -5.02,-14.205 -3.2,-3.768 -7.29,-6.026 -12.154,-6.825 -5.162,-0.801 -10.014,0.076 -14.477,2.824 -0.052,0.039 -0.116,0.078 -0.156,0.078 2.633,-0.168 5.188,0.233 7.588,1.317 1.084,0.464 2.064,1.045 3.044,1.818 -1.148,0.039 -2.193,0.297 -3.149,0.788 -1.624,0.813 -2.773,2.129 -3.47,3.87 -0.155,0.387 -0.155,0.387 0.272,0.363 1.16,-0.104 2.012,-0.078 2.67,0.179 -0.631,0.219 -1.226,0.336 -1.716,0.671 -2.426,1.329 -3.715,3.419 -3.935,6.195 -0.026,0.322 0.065,0.36 0.361,0.218 0.852,-0.465 1.781,-0.683 2.851,-0.787 -0.464,0.426 -0.864,0.761 -1.225,1.123 -2.013,2.167 -2.49,5.613 -1.15,8.244 0.182,0.35 0.247,0.35 0.492,0.078 3.393,-3.911 7.612,-6.283 12.696,-7.083 0.517,-0.104 1.084,-0.117 1.613,-0.207 0.361,-0.065 0.4,0.103 0.348,0.387 -0.528,3.058 0.904,6.076 3.614,7.613 2.761,1.613 6.347,1.097 8.567,-1.071 0.258,-0.22 0.503,-0.284 0.8,-0.193 1.368,0.296 2.644,0.812 3.845,1.496 0.104,0.026 0.18,0.091 0.31,0.194 -0.517,-1.717 -1.549,-2.981 -3.071,-4.012 1.406,0.14 2.67,0.542 3.923,1.031 C 0.206,0.244 0.076,0.141 0,0 m -18.335,17.16 c -15.303,0 -27.69,-12.387 -27.69,-27.703 0,-15.276 12.387,-27.676 27.69,-27.676 15.276,0 27.676,12.4 27.676,27.676 0,15.316 -12.4,27.703 -27.676,27.703" />
        </g>
        <g
           transform="translate(1360.7328,241.6008)"
           id="g1166">
          <path
             id="path1168"
             style="fill:#f3f4f5;fill-opacity:1;fill-rule:evenodd;stroke:none"
             d="m 0,0 c 0,-2.568 -1.406,-3.961 -3.961,-3.961 h -22.142 c -2.451,0 -3.845,1.393 -3.845,3.922 V 10.98 21.921 c 0,2.634 1.354,4.001 3.975,4.001 H -3.961 C -1.406,25.922 0,24.555 0,22.013 Z m -14.981,38.683 c -15.276,0 -27.676,-12.413 -27.676,-27.703 0,-15.291 12.4,-27.69 27.676,-27.69 15.303,0 27.69,12.399 27.69,27.69 0,15.29 -12.387,27.703 -27.69,27.703" />
        </g>
        <g
           transform="translate(1355.2494,254.9036)"
           id="g1170">
          <path
             id="path1172"
             style="fill:#f3f4f5;fill-opacity:1;fill-rule:evenodd;stroke:none"
             d="m 0,0 c -0.465,0 -0.593,-0.104 -0.49,-0.62 0.296,-1.394 0.18,-2.89 -0.208,-4.297 -1.289,-4.502 -5.986,-7.315 -10.683,-6.412 -4.555,0.891 -7.755,5.367 -7.225,9.999 0.155,1.33 0.128,1.278 -1.239,1.368 -0.954,0.039 -1.238,-0.193 -1.238,-1.225 0.065,-3.638 0.051,-7.303 0.051,-10.891 0,-1.393 0.387,-1.793 1.755,-1.793 h 9.767 9.794 c 1.393,0 1.755,0.4 1.78,1.793 V -1.949 C 2.064,0.193 2.064,0.154 0,0" />
        </g>
        <g
           transform="translate(1345.6757,246.8001)"
           id="g1174">
          <path
             id="path1176"
             style="fill:#f3f4f5;fill-opacity:1;fill-rule:evenodd;stroke:none"
             d="m 0,0 c 3.174,-0.052 5.832,2.594 5.857,5.781 0.051,3.11 -2.632,5.807 -5.754,5.807 -3.124,0 -5.755,-2.594 -5.832,-5.73 C -5.807,2.724 -3.148,0.078 0,0" />
        </g>
        <g
           transform="translate(1354.3458,264.1545)"
           id="g1178">
          <path
             id="path1180"
             style="fill:#f3f4f5;fill-opacity:1;fill-rule:evenodd;stroke:none"
             d="m 0,0 c -2.889,0 -2.889,0 -2.889,-2.929 0,-2.941 0,-2.941 2.94,-2.941 2.917,0 2.917,0 2.917,2.903 C 2.968,0 2.968,0 0,0" />
        </g>
        <g
           transform="translate(1491.9437,240.5139)"
           id="g1182">
          <path
             id="path1184"
             style="fill:#f3f4f5;fill-opacity:1;fill-rule:nonzero;stroke:none"
             d="m 0,0 c 0,-0.477 -0.386,-0.862 -0.864,-0.862 h -34.904 c -0.477,0 -0.863,0.385 -0.863,0.862 v 23.556 l 0.004,0.023 c 0.003,0.096 0.017,0.192 0.053,0.285 0.002,0.006 0.006,0.009 0.008,0.014 0.009,0.023 0.024,0.041 0.035,0.063 0.036,0.071 0.078,0.135 0.13,0.192 0.022,0.024 0.046,0.045 0.07,0.066 0.054,0.047 0.112,0.086 0.175,0.118 0.029,0.014 0.055,0.03 0.085,0.041 0.096,0.037 0.197,0.062 0.303,0.062 h 34.904 c 0.107,0 0.207,-0.025 0.303,-0.062 0.03,-0.011 0.057,-0.027 0.085,-0.042 0.064,-0.031 0.121,-0.07 0.175,-0.117 0.025,-0.021 0.049,-0.042 0.071,-0.066 0.052,-0.057 0.093,-0.121 0.128,-0.191 0.012,-0.022 0.027,-0.041 0.037,-0.064 0.002,-0.005 0.006,-0.008 0.008,-0.014 0.035,-0.093 0.049,-0.189 0.052,-0.285 L 0,23.556 Z m -18.316,39.461 c -15.289,0 -27.683,-12.394 -27.683,-27.683 0,-15.289 12.394,-27.683 27.683,-27.683 15.289,0 27.683,12.394 27.683,27.683 0,15.289 -12.394,27.683 -27.683,27.683" />
        </g>
        <g
           transform="translate(1490.2174,242.6038)"
           id="g1186">
          <path
             id="path1188"
             style="fill:#f3f4f5;fill-opacity:1;fill-rule:nonzero;stroke:none"
             d="M 0,0 V 19.537 L -10.931,9.769 Z" />
        </g>
        <g
           transform="translate(1457.0387,262.1409)"
           id="g1190">
          <path
             id="path1192"
             style="fill:#f3f4f5;fill-opacity:1;fill-rule:nonzero;stroke:none"
             d="m 0,0 v -19.537 l 10.931,9.768 z" />
        </g>
        <g
           transform="translate(1475.6925,251.4749)"
           id="g1194">
          <path
             id="path1196"
             style="fill:#f3f4f5;fill-opacity:1;fill-rule:nonzero;stroke:none"
             d="M 0,0 13.127,11.732 H -17.256 L -4.129,0 C -2.952,-1.052 -1.177,-1.052 0,0" />
        </g>
        <g
           transform="translate(1476.8422,250.1878)"
           id="g1198">
          <path
             id="path1200"
             style="fill:#f3f4f5;fill-opacity:1;fill-rule:nonzero;stroke:none"
             d="m 0,0 c -0.917,-0.819 -2.065,-1.229 -3.215,-1.229 -1.15,0 -2.297,0.41 -3.213,1.229 L -7.577,1.026 -18.406,-8.649 H 11.978 L 1.149,1.026 Z" />
        </g>
        <g
           transform="translate(1092.8202,255.4856)"
           id="g1202">
          <path
             id="path1204"
             style="fill:#ffffff;fill-opacity:1;fill-rule:nonzero;stroke:none"
             d="M 0,0 V 0.062 C -0.013,0.04 -0.031,0.02 -0.042,0 Z" />
        </g>
        <g
           transform="translate(1105.671,239.846)"
           id="g1206">
          <path
             id="path1208"
             style="fill:#ffffff;fill-opacity:1;fill-rule:nonzero;stroke:none"
             d="m 0,0 c 0,-0.256 -0.207,-0.463 -0.463,-0.463 h -5.336 c -0.255,0 -0.462,0.207 -0.462,0.463 v 9.613 c 0,2.53 -0.904,4.258 -3.172,4.258 -1.73,0 -2.757,-1.163 -3.211,-2.289 -0.165,-0.403 -0.207,-0.962 -0.207,-1.526 V 0 c 0,-0.255 -0.207,-0.462 -0.463,-0.462 h -5.335 c -0.256,0 -0.463,0.206 -0.462,0.462 0.012,2.561 0.066,14.981 0.011,17.901 -0.004,0.259 0.204,0.468 0.462,0.468 h 5.325 c 0.255,0 0.462,-0.207 0.462,-0.462 v -2.206 c 0.832,1.28 2.316,3.111 5.643,3.111 C -3.089,18.812 0,16.12 0,10.337 Z m -25.892,20.765 c -1.851,0 -3.351,1.501 -3.351,3.351 0,1.851 1.5,3.352 3.351,3.352 1.851,0 3.351,-1.501 3.351,-3.352 0,-1.85 -1.5,-3.351 -3.351,-3.351 M -22.575,0 c 0,-0.256 -0.207,-0.463 -0.463,-0.463 h -5.334 c -0.255,0 -0.462,0.207 -0.462,0.463 v 17.907 c 0,0.255 0.207,0.462 0.462,0.462 h 5.334 c 0.256,0 0.463,-0.207 0.463,-0.462 z m 6.924,40.129 c -15.266,0 -27.685,-12.419 -27.685,-27.685 0,-15.264 12.419,-27.683 27.685,-27.683 15.265,0 27.684,12.419 27.684,27.683 0,15.266 -12.419,27.685 -27.684,27.685" />
        </g>
      </g>
    </g>
  </g>
</svg>
