<?xml version="1.0" encoding="UTF-8" standalone="no"?>
<svg
   xmlns:dc="http://purl.org/dc/elements/1.1/"
   xmlns:cc="http://creativecommons.org/ns#"
   xmlns:rdf="http://www.w3.org/1999/02/22-rdf-syntax-ns#"
   xmlns:svg="http://www.w3.org/2000/svg"
   xmlns="http://www.w3.org/2000/svg"
   id="svg2339"
   version="1.1"
   viewBox="0 0 21.166666 21.166666"
   height="80"
   width="80">
  <defs
     id="defs2333" />
  <metadata
     id="metadata2336">
    <rdf:RDF>
      <cc:Work
         rdf:about="">
        <dc:format>image/svg+xml</dc:format>
        <dc:type
           rdf:resource="http://purl.org/dc/dcmitype/StillImage" />
        <dc:title></dc:title>
      </cc:Work>
    </rdf:RDF>
  </metadata>
  <g
     transform="translate(0,-275.83333)"
     id="layer1">
    <g
       transform="matrix(0.35277777,0,0,-0.35277777,17.161431,282.85654)"
       id="g1162">
      <path
         id="path1164"
         style="fill:#f3f4f5;fill-opacity:1;fill-rule:evenodd;stroke:none"
         d="m 0,0 c -0.852,-1.162 -1.846,-2.207 -3.019,-3.084 -0.22,-0.181 -0.271,-0.311 -0.271,-0.595 0.09,-5.328 -1.613,-10.076 -5.02,-14.205 -3.2,-3.768 -7.29,-6.026 -12.154,-6.825 -5.162,-0.801 -10.014,0.076 -14.477,2.824 -0.052,0.039 -0.116,0.078 -0.156,0.078 2.633,-0.168 5.188,0.233 7.588,1.317 1.084,0.464 2.064,1.045 3.044,1.818 -1.148,0.039 -2.193,0.297 -3.149,0.788 -1.624,0.813 -2.773,2.129 -3.47,3.87 -0.155,0.387 -0.155,0.387 0.272,0.363 1.16,-0.104 2.012,-0.078 2.67,0.179 -0.631,0.219 -1.226,0.336 -1.716,0.671 -2.426,1.329 -3.715,3.419 -3.935,6.195 -0.026,0.322 0.065,0.36 0.361,0.218 0.852,-0.465 1.781,-0.683 2.851,-0.787 -0.464,0.426 -0.864,0.761 -1.225,1.123 -2.013,2.167 -2.49,5.613 -1.15,8.244 0.182,0.35 0.247,0.35 0.492,0.078 3.393,-3.911 7.612,-6.283 12.696,-7.083 0.517,-0.104 1.084,-0.117 1.613,-0.207 0.361,-0.065 0.4,0.103 0.348,0.387 -0.528,3.058 0.904,6.076 3.614,7.613 2.761,1.613 6.347,1.097 8.567,-1.071 0.258,-0.22 0.503,-0.284 0.8,-0.193 1.368,0.296 2.644,0.812 3.845,1.496 0.104,0.026 0.18,0.091 0.31,0.194 -0.517,-1.717 -1.549,-2.981 -3.071,-4.012 1.406,0.14 2.67,0.542 3.923,1.031 C 0.206,0.244 0.076,0.141 0,0 m -18.335,17.16 c -15.303,0 -27.69,-12.387 -27.69,-27.703 0,-15.276 12.387,-27.676 27.69,-27.676 15.276,0 27.676,12.4 27.676,27.676 0,15.316 -12.4,27.703 -27.676,27.703" />
    </g>
  </g>
</svg>
